<?xml version="1.0" encoding="iso-8859-1"?>
<!-- Generator: Adobe Illustrator 17.1.0, SVG Export Plug-In . SVG Version: 6.00 Build 0)  -->
<!DOCTYPE svg PUBLIC "-//W3C//DTD SVG 1.1//EN" "http://www.w3.org/Graphics/SVG/1.1/DTD/svg11.dtd">
<svg version="1.1" id="Capa_1" xmlns="http://www.w3.org/2000/svg" xmlns:xlink="http://www.w3.org/1999/xlink" x="0px" y="0px"
	 viewBox="0 0 259.761 259.761" style="enable-background:new 0 0 259.761 259.761;" xml:space="preserve">
<g>
	<path d="M129.879,0C77.562,0,35,42.563,35,94.882c0,31.605,29.071,81.486,41.569,101.465c10.282,16.436,21.32,32.062,31.079,44
		c15.871,19.414,20.328,19.414,22.232,19.414c1.827,0,6.105,0,21.921-19.42c9.784-12.014,20.831-27.637,31.106-43.988
		c12.584-20.027,41.854-70.006,41.854-101.471C224.761,42.563,182.198,0,129.879,0z M129.88,171.525
		c-41.389,0-75.062-33.673-75.062-75.062c0-41.389,33.673-75.062,75.062-75.062c41.389,0,75.062,33.673,75.062,75.062
		C204.942,137.852,171.269,171.525,129.88,171.525z"/>
	<path d="M184.678,67.66c-0.52,0-1.054,0.075-1.586,0.222l-6.027,1.659l-6.257-15.244c-1.773-4.319-7.014-7.834-11.683-7.834
		h-58.573c-4.669,0-9.91,3.514-11.683,7.833l-6.25,15.225l-5.951-1.639c-0.532-0.146-1.066-0.222-1.586-0.222
		c-2.849,0-4.916,2.176-4.916,5.174v3.555c0,3.499,2.848,6.347,6.347,6.347h0.682l-1.01,2.459
		c-1.647,4.014-2.988,10.807-2.988,15.145v30.288c0,3.499,2.848,6.347,6.347,6.347h8.291c3.499,0,6.347-2.848,6.347-6.347v-7.563
		h71.316v7.563c0,3.499,2.848,6.347,6.347,6.347h8.288c3.499,0,6.347-2.848,6.347-6.347v-30.288c0-4.338-1.341-11.131-2.988-15.145
		l-1.01-2.459h0.767c3.499,0,6.347-2.848,6.347-6.347v-3.555C189.594,69.836,187.527,67.66,184.678,67.66z M87.17,79.288
		l9.467-23.062c1.06-2.584,4.213-4.697,7.006-4.697h52.392c2.792,0,5.944,2.114,7.005,4.697l9.467,23.062
		c1.061,2.584-0.357,4.697-3.149,4.697H90.32C87.528,83.985,86.11,81.872,87.17,79.288z M108.305,108.456
		c0,1.396-1.143,2.539-2.539,2.539H87.782c-1.397,0-2.539-1.143-2.539-2.539v-8.631c0-1.396,1.143-2.539,2.539-2.539h17.984
		c1.396,0,2.539,1.143,2.539,2.539V108.456z M174.263,108.456c0,1.396-1.143,2.539-2.539,2.539h-17.982
		c-1.396,0-2.539-1.143-2.539-2.539v-8.631c0-1.396,1.143-2.539,2.539-2.539h17.982c1.396,0,2.539,1.143,2.539,2.539V108.456z"/>
</g>
<g>
</g>
<g>
</g>
<g>
</g>
<g>
</g>
<g>
</g>
<g>
</g>
<g>
</g>
<g>
</g>
<g>
</g>
<g>
</g>
<g>
</g>
<g>
</g>
<g>
</g>
<g>
</g>
<g>
</g>
</svg>
